<?xml version="1.0" encoding="UTF-8" standalone="no"?>
<!DOCTYPE svg PUBLIC "-//W3C//DTD SVG 1.1//EN" "http://www.w3.org/Graphics/SVG/1.1/DTD/svg11.dtd">
<!-- Created with Vectornator (http://vectornator.io/) -->
<svg height="100%" stroke-miterlimit="10" style="fill-rule:nonzero;clip-rule:evenodd;stroke-linecap:round;stroke-linejoin:round;" version="1.1" viewBox="0 0 841.995 595.35" width="100%" xml:space="preserve" xmlns="http://www.w3.org/2000/svg" xmlns:vectornator="http://vectornator.io" xmlns:xlink="http://www.w3.org/1999/xlink">
<defs/>
<clipPath id="ArtboardFrame">
<rect height="595.35" width="841.995" x="0" y="0"/>
</clipPath>
<g clip-path="url(#ArtboardFrame)" id="Layer-1" vectornator:layerName="Layer 1">
<g opacity="1" vectornator:layerName="Curve 1">
<path d="M-68.1537-31.7853C-68.3446-31.7869-68.5736-31.6902-68.7656-31.5087C-69.0728-31.2181-69.1689-30.8206-68.9801-30.6209C-68.6874-30.3655-68.2847-30.1974-68.1019-29.8547C-67.6588-29.024-67.9331-27.9686-67.6785-27.0622C-67.5692-26.6729-67.3191-26.3379-67.1394-25.9756C-66.1952-24.9772-64.1845-25.3452-62.6484-26.7978C-61.1122-28.2504-60.6323-30.2375-61.5765-31.236C-62.0744-31.2973-62.5687-31.4171-63.0704-31.4198C-64.2874-31.4264-65.5078-30.9966-66.7126-31.1685C-67.1284-31.2279-67.4825-31.5048-67.8674-31.673C-67.9382-31.7479-68.0391-31.7843-68.1537-31.7853Z" fill="#000000" stroke="none"/>
</g>
<g opacity="1" vectornator:layerName="Curve 3">
<path d="M-71.3407-18.4111C-71.477-18.4048-71.6262-18.3669-71.7716-18.2949C-72.1592-18.1029-72.3722-17.7429-72.2474-17.491C-71.9656-16.6925-71.7165-16.1731-71.6818-15.3068C-71.5786-12.7302-72.4942-10.3012-72.0935-7.71019C-71.4696-6.4505-69.3927-6.20772-67.4547-7.1676C-65.5167-8.12749-64.4513-9.92666-65.0752-11.1864C-66.3133-13.2811-68.4693-14.2989-69.9289-16.1752C-70.4301-16.8194-70.5783-17.4343-70.8437-18.1863C-70.9217-18.3437-71.1134-18.4216-71.3407-18.4111Z" fill="#ff04a3" fill-opacity="0.750897" stroke="none"/>
</g>
<g opacity="1" vectornator:layerName="Curve 4">
<path d="M242.102 175.01C241.633 175.024 241.141 175.104 240.642 175.258C238.646 175.872 237.349 177.421 237.748 178.718C237.947 212.76 241.27 246.848 238.314 280.857C237.113 294.68 234.854 308.717 230.517 322.009C222.331 318.072 213.598 315.031 204.516 314.381C200.508 314.093 196.534 314.371 192.56 314.912C177.891 316.908 162.592 322.637 154.035 335.4C152.18 338.166 150.764 341.233 149.902 344.453C145.333 361.524 156.852 378.974 173.594 383.296C190.708 387.714 204.98 373.689 214.534 361.295C216.196 359.138 217.799 356.938 219.34 354.693C221.345 351.771 223.254 348.784 225.092 345.754C228.739 339.745 231.768 333.458 234.296 326.983C250.89 335.693 265.564 347.492 281.379 357.472C293.014 364.814 305.682 370.334 318.832 374.331C333.626 378.828 349.057 381.482 364.552 381.181C379.157 380.897 394.427 377.984 407.094 370.384C415.714 365.212 421.971 357.055 428.458 349.568C428.534 349.377 428.355 349.128 428.06 349.011C427.764 348.894 427.463 348.952 427.387 349.144C421.068 356.437 414.97 364.46 406.572 369.499C394.217 376.912 379.295 379.709 365.056 379.986C354.234 380.197 343.407 378.938 332.842 376.632C315.18 372.777 298.062 365.92 282.883 356.064C266.921 345.7 252.224 333.441 235.376 324.452C235.341 324.433 235.305 324.417 235.27 324.399C240.578 309.934 243.45 294.576 244.925 279.202C248.205 245.026 245.02 210.728 244.978 176.497C244.679 175.524 243.509 174.967 242.102 175.01ZM201.879 316.885C211.526 317.202 220.937 320.479 229.615 324.611C227.49 330.677 224.96 336.587 221.8 342.205C219.984 345.435 217.993 348.573 215.968 351.675C214.587 353.79 213.162 355.882 211.685 357.932C206.985 364.452 201.663 370.903 194.984 375.49C191.19 378.096 186.826 380.055 182.161 380.172C179.779 380.232 177.407 379.792 175.125 379.136C159.953 374.78 149.394 358.294 154.141 342.754C155.173 339.376 156.906 336.279 159.115 333.532C166.252 324.66 177.31 320.254 188.232 318.195C191.267 317.623 194.352 317.157 197.436 316.956C198.92 316.859 200.403 316.837 201.879 316.885Z" fill="#ff04a3" fill-opacity="0.750897" stroke="none"/>
</g>
<g opacity="1" vectornator:layerName="Curve 6">
<path d="M281.457 179.87C280.983 179.91 280.481 180.019 279.984 180.202C277.995 180.933 276.77 182.574 277.246 183.867C282.266 227.632 284.252 271.753 283.407 315.792C283.147 329.371 282.742 342.98 281.9 356.538C280.99 371.172 279.573 385.783 278.152 400.374C278.215 400.633 278.59 400.763 278.988 400.665C279.386 400.567 279.654 400.274 279.59 400.015C281.013 385.404 282.131 370.785 283.352 356.157C286.949 313.063 289.155 269.735 287.674 226.487C287.156 211.363 285.979 196.271 284.451 181.218C284.095 180.249 282.881 179.75 281.457 179.87Z" fill="#322e31" fill-opacity="0.843726" stroke="none"/>
</g>
<g opacity="1" vectornator:layerName="Curve 7">
<path d="M396.792 176.166C396.408 176.199 396.111 176.431 396.133 176.68C384.827 210.96 375.608 245.663 370.493 281.443C369.209 290.423 368.238 299.455 367.577 308.503C366.874 318.129 366.497 327.771 365.752 337.395C364.657 351.526 363.525 365.651 362.754 379.804C362.59 382.812 362.4 385.816 362.157 388.819C362.066 388.677 361.965 388.543 361.875 388.4C358.671 383.309 356.189 377.829 353.67 372.373C350.771 366.097 348.021 359.748 345.203 353.436C343.51 349.644 341.737 345.886 340.119 342.061C337.792 336.562 335.7 330.958 333.82 325.292C327.425 306.012 322.143 286.384 316.009 267.021C306.948 238.416 296.807 210.166 284.805 182.656C284.138 181.414 282.044 181.239 280.132 182.265C278.22 183.291 277.215 185.132 277.882 186.375C292.453 219.169 304.168 253.051 315.385 287.11C322.17 307.715 327.782 328.741 337.196 348.373C343.129 360.746 348.805 373.247 355.179 385.402C356.564 388.043 358.193 390.589 359.941 393.004C360.712 394.071 361.62 395.69 363.227 395.227C365.221 394.653 365.438 392.547 365.601 390.747C365.707 389.573 365.782 388.397 365.848 387.22C365.9 386.292 365.92 385.808 365.965 384.874C366.018 383.757 366.028 383.55 366.074 382.431C366.275 377.607 366.399 372.784 366.63 367.961C367.056 359.076 367.646 350.199 368.181 341.32C368.911 329.191 369.186 317.039 369.958 304.915C370.592 294.954 371.631 285.015 373.011 275.13C377.703 241.528 386.918 208.721 397.526 176.557C397.504 176.307 397.176 176.132 396.792 176.166Z" fill="#322e31" fill-opacity="0.843726" stroke="none"/>
</g>
<g fill="#766b73" opacity="1" stroke="none" vectornator:layerName="Text 2">
<path d="M332.808 237.486L333.349 239.316L321.448 242.838L323.472 249.681L321.863 250.157L319.297 241.484L332.808 237.486Z"/>
<path d="M325.328 252.233C324.849 252.374 324.524 252.66 324.351 253.092C324.179 253.523 324.163 253.977 324.305 254.456C324.477 255.038 324.779 255.562 325.21 256.028C325.93 256.816 326.799 257.059 327.817 256.758L329.15 256.363C328.962 256.199 328.777 255.97 328.597 255.676C328.417 255.383 328.263 255.088 328.136 254.793L327.71 253.828C327.453 253.251 327.194 252.837 326.933 252.588C326.494 252.164 325.959 252.046 325.328 252.233ZM329.862 255.252C330.024 255.618 330.258 255.825 330.566 255.874C330.735 255.904 330.957 255.878 331.233 255.797C331.798 255.63 332.147 255.308 332.283 254.831C332.419 254.354 332.376 253.742 332.155 252.993C331.899 252.129 331.484 251.585 330.911 251.361C330.594 251.235 330.172 251.216 329.645 251.305L329.187 249.76C330.411 249.432 331.372 249.576 332.071 250.192C332.77 250.809 333.268 251.617 333.563 252.617C333.906 253.776 333.964 254.782 333.737 255.636C333.507 256.484 332.927 257.046 331.995 257.322L326.32 259.001C326.148 259.052 326.021 259.128 325.937 259.229C325.854 259.331 325.846 259.495 325.913 259.722C325.935 259.795 325.964 259.877 326 259.966C326.037 260.055 326.079 260.149 326.129 260.248L324.905 260.61C324.756 260.374 324.652 260.191 324.593 260.062C324.535 259.932 324.471 259.751 324.402 259.518C324.234 258.948 324.314 258.474 324.642 258.097C324.817 257.899 325.092 257.714 325.468 257.542C324.927 257.336 324.4 256.965 323.889 256.429C323.377 255.894 323.008 255.246 322.783 254.486C322.513 253.572 322.57 252.743 322.953 252C323.337 251.256 323.945 250.761 324.779 250.514C325.693 250.244 326.485 250.32 327.157 250.741C327.828 251.163 328.359 251.819 328.75 252.71L329.862 255.252Z"/>
<path d="M335.294 259.346L335.76 260.919L334.058 261.423C334.427 261.453 334.924 261.65 335.548 262.012C336.172 262.374 336.581 262.884 336.775 263.54C336.784 263.57 336.797 263.623 336.812 263.699C336.828 263.774 336.853 263.903 336.887 264.087L335.139 264.604C335.129 264.5 335.114 264.406 335.096 264.322C335.078 264.237 335.054 264.146 335.025 264.047C334.778 263.214 334.32 262.652 333.651 262.363C332.982 262.074 332.298 262.033 331.599 262.24L325.934 263.917L325.444 262.261L335.294 259.346Z"/>
<path d="M330.283 268.981C329.805 269.123 329.479 269.409 329.307 269.84C329.134 270.272 329.119 270.726 329.26 271.205C329.433 271.787 329.734 272.311 330.166 272.777C330.885 273.564 331.754 273.808 332.772 273.506L334.106 273.112C333.917 272.948 333.733 272.719 333.553 272.425C333.372 272.132 333.219 271.837 333.091 271.542L332.666 270.577C332.408 270 332.149 269.586 331.888 269.337C331.45 268.913 330.915 268.795 330.283 268.981ZM334.817 272.001C334.979 272.367 335.214 272.574 335.522 272.623C335.69 272.653 335.913 272.627 336.189 272.546C336.753 272.379 337.103 272.057 337.238 271.58C337.374 271.103 337.331 270.49 337.11 269.742C336.854 268.878 336.44 268.334 335.867 268.11C335.549 267.983 335.127 267.965 334.6 268.054L334.143 266.509C335.366 266.181 336.327 266.325 337.026 266.941C337.726 267.558 338.223 268.366 338.519 269.365C338.862 270.524 338.919 271.531 338.692 272.385C338.463 273.233 337.882 273.795 336.95 274.071L331.275 275.75C331.104 275.801 330.976 275.877 330.893 275.978C330.809 276.079 330.801 276.243 330.868 276.47C330.89 276.544 330.919 276.625 330.956 276.715C330.992 276.804 331.035 276.898 331.084 276.997L329.861 277.359C329.711 277.123 329.607 276.94 329.549 276.811C329.49 276.681 329.427 276.5 329.358 276.267C329.189 275.697 329.269 275.223 329.597 274.846C329.772 274.647 330.047 274.463 330.424 274.291C329.882 274.085 329.356 273.714 328.844 273.178C328.332 272.643 327.964 271.995 327.739 271.235C327.468 270.321 327.525 269.492 327.909 268.749C328.292 268.005 328.901 267.51 329.735 267.263C330.648 266.993 331.441 267.068 332.112 267.49C332.784 267.911 333.315 268.568 333.705 269.459L334.817 272.001Z"/>
<path d="M343.962 275.187L344.602 277.348L335.676 287.411L346.621 284.173L347.135 285.911L333.624 289.909L333.017 287.858L341.904 277.697L330.968 280.932L330.451 279.185L343.962 275.187Z"/>
<path d="M337.407 293.061C336.929 293.202 336.604 293.489 336.431 293.92C336.258 294.351 336.243 294.806 336.384 295.284C336.557 295.866 336.859 296.391 337.29 296.856C338.01 297.644 338.878 297.887 339.896 297.586L341.23 297.191C341.041 297.027 340.857 296.798 340.677 296.505C340.497 296.211 340.343 295.917 340.215 295.621L339.79 294.656C339.532 294.079 339.273 293.666 339.013 293.416C338.574 292.992 338.039 292.874 337.407 293.061ZM341.942 296.08C342.103 296.446 342.338 296.653 342.646 296.702C342.815 296.732 343.037 296.707 343.313 296.625C343.877 296.458 344.227 296.136 344.363 295.659C344.498 295.182 344.455 294.57 344.234 293.822C343.978 292.957 343.564 292.413 342.991 292.189C342.673 292.063 342.251 292.044 341.724 292.134L341.267 290.588C342.49 290.26 343.451 290.404 344.151 291.021C344.85 291.637 345.347 292.445 345.643 293.445C345.986 294.604 346.044 295.61 345.816 296.464C345.587 297.312 345.006 297.874 344.074 298.15L338.399 299.829C338.228 299.88 338.1 299.956 338.017 300.057C337.933 300.159 337.925 300.323 337.992 300.55C338.014 300.623 338.043 300.705 338.08 300.794C338.116 300.883 338.159 300.977 338.208 301.076L336.985 301.438C336.835 301.202 336.731 301.02 336.673 300.89C336.615 300.761 336.551 300.579 336.482 300.346C336.313 299.776 336.393 299.302 336.722 298.925C336.896 298.727 337.172 298.542 337.548 298.371C337.007 298.164 336.48 297.793 335.968 297.258C335.456 296.722 335.088 296.074 334.863 295.314C334.593 294.4 334.649 293.572 335.033 292.828C335.416 292.084 336.025 291.589 336.859 291.342C337.772 291.072 338.565 291.148 339.237 291.569C339.908 291.991 340.439 292.647 340.829 293.539L341.942 296.08Z"/>
<path d="M347.315 300.142L347.813 301.825L338.008 304.726L337.51 303.043L347.315 300.142ZM351.021 299.046L351.519 300.729L349.643 301.284L349.145 299.601L351.021 299.046Z"/>
<path d="M352.273 303.277L352.763 304.932L339.251 308.93L338.762 307.274L352.273 303.277Z"/>
<path d="M343.368 311.483C342.83 311.695 342.448 311.958 342.221 312.272C341.811 312.847 341.758 313.649 342.063 314.68C342.244 315.293 342.537 315.793 342.942 316.18C343.347 316.567 343.828 316.678 344.386 316.513C344.809 316.388 345.076 316.106 345.186 315.666C345.25 315.387 345.266 314.869 345.236 314.111L345.178 312.698C345.138 311.796 345.187 311.108 345.327 310.633C345.564 309.789 346.078 309.25 346.869 309.016C347.801 308.741 348.655 308.853 349.43 309.354C350.205 309.855 350.76 310.673 351.096 311.807C351.535 313.291 351.416 314.49 350.739 315.403C350.309 315.977 349.773 316.353 349.132 316.529L348.669 314.966C349.034 314.824 349.336 314.592 349.573 314.268C349.896 313.759 349.919 313.035 349.641 312.097C349.456 311.472 349.196 311.034 348.862 310.782C348.528 310.531 348.164 310.464 347.772 310.58C347.343 310.707 347.062 311.02 346.93 311.519C346.849 311.81 346.821 312.212 346.846 312.724L346.903 313.898C346.967 315.173 346.924 316.052 346.774 316.537C346.541 317.306 345.971 317.824 345.063 318.093C344.187 318.352 343.331 318.244 342.496 317.767C341.662 317.291 341.043 316.372 340.64 315.01C340.207 313.545 340.232 312.409 340.717 311.602C341.202 310.795 341.929 310.225 342.897 309.892L343.368 311.483Z"/>
</g>
</g>
</svg>
